# xmcd
#
# Track frame offsets:
#	182
#	13115
#	24995
#	36485
#	39807
#	49277
#	64292
#	76335
#	80452
#	91692
#	97392
#	105085
#	116215
#	128982
#	143487
#	157642
#	172265
#	189180
#
# Disc length: 2691 seconds
#
# Revision: 1
# Processed by: cddbd v1.4b41PL1 Copyright (c) Steve Scherf et al.
# Submitted via: audiograbber 1.80
#
DISCID=e00a8112
DTITLE=Billie Holiday - Recorded From Carnegie Hall Live
DYEAR=1900
DGENRE=
TTITLE0=Reading from Lady Sings the Blues
TTITLE1=Lady Sings the Blues
TTITLE2=Ain't Nobody's Business if I Do
TTITLE3=Reading from Lady Sings the Blues with Trav'lin' Light
TTITLE4=Reading from Lady Sings the Blues
TTITLE5=Billie's Blues
TTITLE6=Body and Soul
TTITLE7=Reading from Lady Sings the Blues
TTITLE8=Don't Explain
TTITLE9=Yesterdays
TTITLE10=Please Don't Talk About Me when I'm Gone
TTITLE11=I'll Be Seeing You
TTITLE12=Reading from Lady Sings the Blues
TTITLE13=My Man
TTITLE14=I Cried for You
TTITLE15=Fine and Mellow
TTITLE16=I cover the Waterfront
TTITLE17=What a Little Moonlight Can Do
EXTD=
EXTT0=
EXTT1=
EXTT2=
EXTT3=
EXTT4=
EXTT5=
EXTT6=
EXTT7=
EXTT8=
EXTT9=
EXTT10=
EXTT11=
EXTT12=
EXTT13=
EXTT14=
EXTT15=
EXTT16=
EXTT17=
PLAYORDER=
